<svg width="458" height="214" fill="none" xmlns="http://www.w3.org/2000/svg"><path fill-rule="evenodd" clip-rule="evenodd" d="M9.7 52.1v.2A52 52 0 0 0 17 59c2.7 2 5.8 3 9.2 3.2l.2.1h.3l.3.1h1.3l1-.2c1.2-.2 2.4-.7 3.5-1.4s2-1.5 2.7-2.5l.2-.5.2-.5a13.9 13.9 0 0 0 .5-2.8c0-2-1-3.8-2.8-5.2a20 20 0 0 0-8.3-4c-.7-.3-1.4-.5-2.2-.6H23l-.2-.1A38 38 0 0 1 12 40a16 16 0 0 1-6.9-8.9l-.7-2.4a27.9 27.9 0 0 1-.4-3.5v-2.8l.3-1.9c.3-1.6.7-3.1 1.2-4.6.5-1.6 1.2-3 2-4.2 2.6-4.1 5.7-7 9.6-8.8A29.6 29.6 0 0 1 35.7.8a44.3 44.3 0 0 1 16 6.2l-6.5 14.2c-2-1.5-4.3-2.9-6.6-4a16.6 16.6 0 0 0-7.6-1.8h-.9c-1.8.3-3.4 1-5 2.5-1.5 1.3-2.3 2.7-2.3 4.3v.7l.3.6c.2.6.5 1 .9 1.6a10 10 0 0 0 5 3.2A202.6 202.6 0 0 0 41.8 32a18 18 0 0 1 9.8 7.8c2.2 3.6 3.3 7.4 3.4 11.4v.6c0 .4 0 .9-.2 1.4v1.2c-.4 4-1.7 7.9-3.9 11.5a21.5 21.5 0 0 1-12.5 10 82.5 82.5 0 0 1-7.7 1.5c-1.1.2-2.2.3-3.4.3H26A39 39 0 0 1 .4 67L9.7 52ZM225.6 6a36.9 36.9 0 0 0-19 27 23.5 23.5 0 0 0-.7 6.2 38.6 38.6 0 0 0 21 34.2 38 38 0 0 0 15.3 4.3h1.5l1.6.2c7.6 0 14.8-2.1 21.7-6.2a37.4 37.4 0 0 0 13.5-50.3 36.2 36.2 0 0 0-21-18.2 41.1 41.1 0 0 0-34 2.8Zm73.1 70V2h19.5l27.9 38 2 3.5 2 3.6 1.3 3 1.4 3c0-.9-.2-1.7-.3-2.5a270.7 270.7 0 0 1-.7-12.2V2h19.4v74h-19.4l-28.1-38.3c-.8-.9-1.5-2-2.2-3.2a65.8 65.8 0 0 1-3.4-7 51 51 0 0 0-1.2-2.8 111 111 0 0 1 1.3 14.8V76h-19.5ZM406.2 2l-25.5 74h20l3.8-13.3h28.6l3.7 13.4H457L431.4 2h-25.2Zm2.6 46.4 7.6-24.5a49.8 49.8 0 0 0 1.6-6.6l.1-.4.1-.4a40.3 40.3 0 0 1 .6-2.6 40.6 40.6 0 0 1 .6 2.6 86.3 86.3 0 0 0 2 7.4l7.5 24.5h-20Zm-145.3-.7c.3-.8.5-1.6.6-2.5a14.7 14.7 0 0 0 .6-4.2 10.6 10.6 0 0 0 0-2.9v-1.4c-.4-3.3-1.4-6.5-3-9.6a17.8 17.8 0 0 0-6.8-7.2 30.8 30.8 0 0 0-4.6-1.9 24 24 0 0 0-4.6-.5A19.3 19.3 0 0 0 227.8 31l-.3.4v.5L227 34l-.5 2.2-.2 1.6v3.3c.3 4 1.6 8 3.8 11.7 2.3 3.6 5.5 6 9.5 7.2l1.4.5 1.5.2 1.4.2h1.4c4.1 0 7.8-1.2 11-3.6 3.4-2.4 5.8-5.7 7.2-9.8Zm-94 26.5c4.3-1 8.2-2.6 11.9-5.1a32 32 0 0 0 10.3-12.6 41.2 41.2 0 0 0 4-15.9v-2.9l-.1-1.4a40.3 40.3 0 0 0-4.1-15.3c-2.4-5-5.8-9-10.1-12A30.3 30.3 0 0 0 170 4a72.5 72.5 0 0 0-15.9-2h-25v74h27.5c4.3-.3 8.6-.9 12.8-1.8ZM149 59.3c.2 0 .5 0 .7.2h4.7c.9 0 1.7 0 2.5-.2 2-.1 4-.5 6-1a15.5 15.5 0 0 0 10.7-9.6c1.1-3.1 1.8-6.4 1.7-9.7v-1.8c-.2-3-1-5.8-2.2-8.5-1.2-2.8-2.9-5-5-6.6a13.3 13.3 0 0 0-5.5-2.7c-2-.5-4-.7-6-.8H149v40.7ZM69 2v74h45.5V59.2H88.9V46.8h24V31H89V18.1h25.6V2H69Zm282.4 196.4-.1.8c0 .8.2 1.3.7 1.7.5.4 1 .6 1.7.6 0 .3-.1.7-.3 1a3 3 0 0 1-.7.7l-.8.6-.9.3 1.4 2h.1l.3-.2a11.9 11.9 0 0 0 1.6-.9 5.7 5.7 0 0 0 2.1-2.6 6 6 0 0 0 .5-2.3c0-.5 0-.9-.2-1.3s-.3-.8-.6-1a3 3 0 0 0-1-.8l-1.4-.2a2.6 2.6 0 0 0-1.9.8l-.5.8Zm7.7.8a2.5 2.5 0 0 1 .7-1.6 2.6 2.6 0 0 1 1.9-.8 2.9 2.9 0 0 1 2.4 1l.5 1 .2 1.3a6 6 0 0 1-1.7 4.3l-.9.6a8.2 8.2 0 0 1-1.6 1l-.4.1-1.3-2 .8-.3.9-.6c.2-.2.5-.4.6-.7.2-.3.3-.7.3-1-.6 0-1.2-.2-1.7-.6a2 2 0 0 1-.7-1.7ZM94.4 141.4l.1-.9a2 2 0 0 0-.7-1.6c-.5-.4-1-.6-1.7-.6 0-.4.1-.7.3-1l.6-.8 1-.5.7-.4-1.3-2-.4.2a13.6 13.6 0 0 0-1.6 1c-.3.1-.6.3-.8.6a6 6 0 0 0-1.8 4.3c0 .4 0 .8.2 1.3a3 3 0 0 0 1.6 1.8l1.3.2c.8 0 1.5-.3 2-.8l.5-.8Zm-7.7-.9a2.5 2.5 0 0 1-1.5 2.3l-1.1.2c-.4 0-.9-.1-1.3-.3a3 3 0 0 1-1-.7 3 3 0 0 1-.6-1 4 4 0 0 1-.2-1.3 6 6 0 0 1 3.5-5.5l.7-.4c.2 0 .3-.1.3-.2l1.4 2-.8.4-.9.5a3 3 0 0 0-.7.8l-.3 1c.7 0 1.3.2 1.8.6.4.4.7.9.7 1.6Zm249.2 56.9H332l12-20.6h3.7l-11.8 20.6Zm-4 1.5c-1.3 0-2.2 1-2.2 2.2 0 1.2 1 2.2 2.2 2.2a2.2 2.2 0 1 0 0-4.4Zm-25.3-7.4-1 1.9c.7 2.4 4 1 5.2-1l1.8-3c1.3-2.3-1.6-4-6 2Zm24 4.8c-.2-.5-.9-1.1-1.4-1.3l-.3.3c-1.3 1.6-2.8 3-4.5 4.1a30 30 0 0 0 1-5c.4-2.8.8-6 2.3-9l-2.9-1.5-1 1.4a148 148 0 0 1-7.4 9.7l-.2.3c-2.8 3.2-5.4 5.7-7.1 5.7-.8 0-1.6-.9-1.6-2.6V197c2.6.3 5.4-1.4 7.2-4.5l1-1.8c3.5-6-2.2-8-6-4.5l5.3-9.3h-3.8l-10.7 18.7a3 3 0 0 0-.7-.5l-.3.3c-2.7 3.2-6.2 5.7-8.8 5.7-2.4 0-3.7-1.5-2-4.5l3.9-6.8c2.2-3.7 6-3.1 3.8.8l-.6 1h3.1l.6-1c2-3.5 0-6-3-6a8 8 0 0 0-7.1 4.3l-3.8 6.4-.2-.2-.3.3c-2.7 3.2-5.3 5.7-7 5.7-.8 0-1.3-.6-.4-2l8-14.2H282l-6.7 11.7c-2.8 2.6-5 4-5.8 3.8-.9-.4-.1-1.7.4-2.5v-.1l7.5-13h-3.8l-7.4 12.8-2 1.3-1.1.6c.4-1.4.7-3 1-5 .4-2.8.8-6 2.2-9l-2.8-1.5a501 501 0 0 1-13.7 17.7c.3.5.9 1 1.4 1.3 2.2-2.4 9.3-11.7 10.7-13.5a23 23 0 0 0-1 4.7c-.5 3.2-1 6.3-3.3 6.3-1.3 0-1.8-1.4-1.8-1.4l-2.3 1.3s.7 3 4.1 3h1.1v-.1a16 16 0 0 0 6.4-2.4c0 1.6 1 2.5 2.5 2.5 2.1 0 4.4-1.9 6.2-3.6-.3 2 .9 3.6 3.3 3.6 2.3 0 5-1.9 7.4-4.4 0 2.6 2 4.4 5.1 4.4 3.1 0 6.1-1.7 8.8-4l-2.1 3.6h3.8l4.3-7.5v3c0 3.3.6 5 3.7 5s6.7-3.4 9.8-7v-.1a95.4 95.4 0 0 0 5.4-6.9c-.5 1.3-.7 3-1 4.7-.4 3.2-.9 6.3-3.3 6.3-1.2 0-1.7-1.4-1.7-1.4l-2.4 1.3s.7 3 4.1 3h1.1l.1-.1c3.9-.5 7.7-3.6 10.5-6.9Zm-114.8-1h.2l2.8-4.8c2.3-3.9-1.4-5.7-4-1.2l-1.8 3.1-3 5c-2.2 4 2.2 4.5 4 1.4-.2-.4-.4-.8-.4-1.3 0-1.2 1-2.3 2.2-2.3Zm-25.2 14c-.8 1.5-2 1.3-2 .3s.8-2.1 3.7-3.3l-1.7 3Zm-34.9-8.3c1.6 0 3.9-1.8 6.1-5.4l3-5.1c1.8-3.4-2.2-4.3-4.2-.8l-5.3 9.2c-.9 1.5-.4 2 .4 2Zm-6-20.1c1.2-2 2.4-2.8 3.5-2.8 1.4 0 2 1 2 2.4 0 3.5-4.3 10.8-10.1 9.8h-.8l5.5-9.4Zm92.6 14.4.3-.3c.5.2 1.1.8 1.4 1.3-3.1 3.6-6.7 7-9.9 7-3 0-4.1-2.6-2.5-5.4l4.9-8.5c1.6-2.8-1-3.8-6.8 3.5l-5.7 10H220l2.6-4.4a11 11 0 0 1-5 1.5h-.8c-4.2 5.3-11.2 4.1-10.7-1.1a23.8 23.8 0 0 1-9.6 6.1l-2.9 5c-2.7 4.7-8.2 3.9-8.2.3 0-2.9 3.2-5 8.3-6.5l2-3.6c-1.7 1.6-3.7 3-5.5 3-2 0-2.9-1.3-2.4-3.3-2.2 2-4.4 3.4-6.5 3.4-3 0-4.1-2.6-2.6-5.4l5-8.5c1.6-2.8-1-3.8-6.8 3.5l-5.7 10h-3.9l1.4-2.4c-2 1.7-3.9 2.8-5.7 2.8-2 0-3-1-3.3-2.5-1.8 1.5-3.7 2.5-5.2 2.5-2.7 0-3.9-2-3-4.4l-.3.2c-2.4 2.4-4.3 4.2-8.4 4.2-5.4 0-7-5.1-4.3-9.7l1.2-2a8.5 8.5 0 0 1-4.8-7.5c0-2.5 1.2-5 3.9-7l1.2 2.2a6 6 0 0 0-2.4 4.8 6 6 0 0 0 3.4 5.3l5.9-10c1.7-3 4.1-4.5 6.2-4.5 2.8 0 5 2.2 5 5.6 0 1.5-.5 3.2-1.5 5a13.4 13.4 0 0 1-13.7 7.2l-1.1 1.8c-2.2 3.9-.7 6.5 1.9 6.5 3.7 0 5.8-2.5 8.4-5.5l.2-.2.2-.3c.3 0 .6.3.8.5l4-6.8c1.5-2.7 4.4-4.3 6.4-4.3 2.5 0 4.1 2.2 4 3.8h2.1l-6.1 10.7c-.9 1.5-.4 2 .4 2 1.7 0 4.4-2.5 7-5.6l.3-.3.4.2 6-10.4h3.8l-1.4 2.4c1.9-2 3.6-2.8 5.2-2.8 2.1 0 3.7 2 2 5l-5.4 9.5c-.9 1.5-.4 2 .5 2 1.6 0 4.3-2.5 7-5.6l.3-.3.3.2 6-10.4h3.8l-7.4 12.8v.2c-.6.8-1.3 2-.5 2.4.8.4 3-1.1 6-3.8l6.6-11.6h3.8L198 202.5c3-1.3 5.7-3.6 8.8-7.2l.2-.3.4.2 1.6-2.8 1.9-3.2c2.1-3.8 4.4-5 7.3-5 3.6 0 5.7 3.8 3.4 7.7l-3.6 6.2c2 0 4-1 5.7-2.8l.3-.3.5.3 6-10.6h3.8l-1.4 2.5c1.9-2 3.6-2.8 5.2-2.8 2.1 0 3.7 2 2 5l-5.4 9.5c-.8 1.5-.4 2 .5 2 1.6 0 4.3-2.5 7-5.6Zm118.9-35.9c-2.3 3.8-4.6 5.5-6.2 5.5-.9 0-1.3-.5-.5-2l5.3-9.2c2-3.5 6-2.6 4.2.8l-2.8 5Zm-42.3 5.5c1.6 0 3.8-1.7 6.1-5.3l3-5.1c1.8-3.4-2.2-4.3-4.3-.8l-5.2 9.2c-.9 1.5-.4 2 .4 2Zm-33.8 8.5c-.8 1.4-2 1.2-2 .2s.8-2.2 3.7-3.3l-1.7 3Zm11.4-31.3c-1 0-2.3.9-3.4 2.8l-5.4 9.4h.7c9.7 2.3 14.1-12.2 8.1-12.2Zm74.3 16.9-.3.3c-2.7 3.1-5.3 5.6-7 5.6-.9 0-1.3-.5-.5-2l12.8-22.2h-3.7l-5.6 9.6c-.7-1-1.9-2-3.5-2-2 0-4.8 1.7-6.4 4.4l-3.7 6.4-.3-.1-.2.3c-2.7 3.1-5 5.6-6.7 5.6-.8 0-1.3-.5-.4-2l5.4-9.6c1.7-2.9.1-5-2-5-1.6 0-3.3 1-5.2 3l1.4-2.6H341l-6 10.5-.4-.2-.3.3c-2.7 3.1-5.3 5.6-7 5.6-.8 0-1.3-.5-.4-2l6-10.7h-2c0-1.6-1.6-3.8-4-3.8-2 0-4.9 1.6-6.5 4.3l-3.7 6.3-.2.3c-2.7 3.1-5.7 5.6-7.4 5.6-.8 0-1.3-.5-.4-2l3.8-6.6c1.3-2.3.6-3.7-.6-5.2l-2-2.5c-.6-.7-.6-1.5.1-2.2l-2-2.1c-2 1.9-2.3 4-1 5.8l.4.4-.1.2c-1.7 2.3-3.9 5.5-6.3 8.3l.3.3a25 25 0 0 1-8.8 7.2l4.8-8.2h-3.7l-.4.6c-2 3.5-4.3 6-7.3 6-2.5 0-3-2.5-.8-6.4l1-1.8 2.2.1c13.5 0 20-18 8.1-18-2 0-4.5 1.5-6.2 4.5l-5.9 10.1a6 6 0 0 1-3.4-5.4 6 6 0 0 1 2.5-4.7l-1.3-2.2a8.6 8.6 0 0 0-3.9 7c0 3 1.7 6 4.8 7.5l-1.1 2c-2.7 4.6-2.2 9.7 3.1 9.7 1.6 0 3-.5 4.1-1.2l-1 1.7c-5 1.5-8.2 3.6-8.2 6.4 0 3.7 5.5 4.4 8.2-.2l3-5c3.9-1.2 7.7-4 11.9-8.7l-.3-.4c1.7-2 3.1-3.8 6-7.7l.5.6c.5.6.6 1.4.2 2.2l-4 6.9c-1.6 2.8-.5 5.4 2.6 5.4 1.9 0 4.3-1.3 6.4-3 0 1.7 1.1 3 3.3 3 1.5 0 3.4-1 5.2-2.5.2 1.4 1.4 2.5 3.3 2.5 1.8 0 3.8-1.2 5.7-2.8l-1.4 2.4h3.8l5.8-10c5.8-7.3 8.4-6.3 6.7-3.6L342 162c-1.6 2.8-.5 5.4 2.6 5.4 2 0 3.8-1.4 6-3.4-.2 2 1 3.4 3.3 3.4 1.5 0 3.4-1 5.2-2.5.2 1.4 1.3 2.5 3.3 2.5 3 0 6.7-3.4 9.8-7-.3-.5-1-1.1-1.4-1.3Zm-108.5-4.5c2.2-4-1.6-4.6-3.8-.8l-2.4 4.2c1.4.5 3.8.6 5.6-2.5l.6-1Zm-6.8 12.8c4.2 0 8.5-3.4 11.6-7-.2-.5-.9-1.1-1.4-1.3l-.3.3c-2.7 3.1-6.2 5.6-8.8 5.6-2.3 0-3.7-1.4-2-4.5l.4-.6c2.4 1 7 .5 9.8-4.4l.6-1c2-3.4 0-6-3-6a8 8 0 0 0-7.1 4.3l-3.7 6.3h-.1l-.3.3c-2.7 3.1-5.4 5.6-7 5.6-.9 0-1.3-.5-.5-2l5.5-9.6c1.6-2.9 0-5-2-5-1.7 0-3.4 1-5.3 3l6-10.6h-3.8l-10.6 18.5-.4-.2-.3.3c-2.7 3.1-5.4 5.6-7 5.6-.9 0-1.4-.5-.5-2l8.1-14.2h3.1l1-1.8h-3l3.5-6.2h-3.8l-3.5 6.2h-3.4l-1.1 1.8h3.4L222 162c-1.6 2.8-.4 5.4 2.6 5.4 1.9 0 4-1.2 6-3l-1.5 2.6h3.8l5.7-10c5.8-7.3 8.4-6.3 6.8-3.5l-5 8.5c-1.5 2.8-.4 5.4 2.7 5.4 2.2 0 4.8-1.8 7.2-4.2.1 2.4 2 4.2 5.2 4.2Zm-123.7-12.8c2.2-4-1.6-4.6-3.8-.8l-2.5 4.2c1.5.5 3.9.6 5.7-2.5l.6-1Zm19.3 8.4 5.3-9.2c2-3.5 6-2.6 4.2.8l-3 5.1c-2.3 3.6-4.5 5.3-6 5.3-.9 0-1.4-.5-.5-2Zm57.8-8.4c2.2-4-1.6-4.6-3.8-.8l-2.5 4.2c1.5.5 3.9.6 5.7-2.5l.6-1Zm-61.6 8.7c-.7 2.2.5 4 3.1 4 1.5 0 3.4-1 5.2-2.4.2 1.4 1.4 2.5 3.3 2.5 2 0 4.2-1.4 6.4-3.4-.4 2 .5 3.4 2.4 3.4 2 0 4.4-2 6.2-3.7-.4 2 .8 3.7 3.2 3.7 3.2 0 6.7-3.4 9.9-7v-.1h-.1l4.3-5.6 1-1.2a23 23 0 0 0-1 4.6c-.5 3.3-1 6.4-3.4 6.4-1.2 0-1.8-1.4-1.8-1.4l-2.3 1.2s.7 3 4.1 3h1.1c2.9-.4 5.6-2.1 8-4.3 0 2.5 2 4.4 5.1 4.4 4.3 0 8.6-3.4 11.7-7-.3-.5-1-1.1-1.4-1.3l-.3.3c-2.7 3.1-6.2 5.6-8.8 5.6-2.4 0-3.7-1.4-2-4.5l.4-.6c2.4 1 7 .5 9.8-4.4l.5-1c2-3.4.1-6-3-6a8 8 0 0 0-7 4.3l-3.7 6.3h-.1l-.3.3c-1.3 1.5-2.8 3-4.5 4 .5-1.3.7-3 1-4.9.4-2.8.8-6 2.3-9l-2.9-1.5-1 1.4a147.3 147.3 0 0 1-7.3 9.8l-.1.2c-2.7 3.1-5.4 5.6-7 5.6-.9 0-1.4-.5-.5-2l8-14.2h-3.7l-6.7 11.8c-2.9 2.6-5.1 4-5.8 3.7-1-.4-.2-1.6.3-2.4l.1-.1v-.1l7.4-12.9h-3.8l-6 10.4-.3-.1-.2.3c-2.7 3.1-5.4 5.6-7 5.6-.9 0-1.4-.5-.5-2l6.1-10.7h-2.1c.1-1.6-1.5-3.8-4-3.8-2 0-4.9 1.6-6.5 4.3l-3.8 6.6-.6-.3-.2.3c-2.8 3.1-5.9 5.6-8.5 5.6-2.4 0-3.7-1.4-2-4.5l3.9-6.7c2.2-3.8 6-3.1 3.8.8l-.6 1h3.1l.6-1c2-3.5 0-6.1-3-6.1-3.1 0-5.2 1.6-6.8 4.3l-3.7 6.5-.4-.2-.2.3c-2.8 3.1-6 5.6-8.6 5.6-2.4 0-3.8-1.4-2-4.5l.4-.6c2.4 1 7 .5 9.8-4.4l.5-1c2-3.4.1-6-3-6a8 8 0 0 0-7 4.3l-4 6.8c-2.4 4-.3 7.8 4.1 7.8 3.4 0 6-2 8.8-4.7 0 2.7 1.9 4.7 5.1 4.7 3.1 0 5.8-1.8 8.5-4ZM113.5 144l-3.1 5.2c3.9 0 6-.9 7.4-3.6 2-3.5-1.6-6.3-4.3-1.6Zm-7.2 22.5c-2.2 0-4-.5-5.4-1.3l1.9-2.7 6.3-11h1c9 2 5.4 15-3.8 15Zm9.4-15.5c7.6-2.6 8.2-12.1.7-12.1-2.1 0-4.6 1.4-6.3 4.4L100 160.9l-1.4 2.1c-2.6-3.6-1.9-9 1.8-11.3l-1.5-2c-8 5.1-5.6 19.7 7.6 19.7 11.3 0 16.5-13.6 9.3-18.4Z" fill="#fff"/></svg>