<svg width="189" height="46" fill="none" xmlns="http://www.w3.org/2000/svg"><path fill-rule="evenodd" clip-rule="evenodd" d="M60.8 37.4V45H40V.4h20.8V8H47.6v10.8h10.6v7.7H47.6v10.9h13.2ZM82.2 45v-7.7H71.6V.4H64V45h18.2Zm106.5 0v-7.7h-13.2V26.5H186v-7.7h-10.5V8h13.2V.4h-20.8V45h20.8ZM163.5.4h-7.6L149.1 22 142.3.4h-7.5V45h7.6v-22l3 11.4h7.4l3-11.4v22h7.7V.4ZM124 8h-5.5v29.4h5.5V8Zm7.7-3c0-2.5-2.2-4.6-4.7-4.6h-11.4a4.7 4.7 0 0 0-4.7 4.7v35.3c0 2.5 2 4.7 4.7 4.7H127c2.5 0 4.7-2.2 4.7-4.7V5ZM99 28.7l7.6-1.8v13.6c0 2.5-2.1 4.7-4.6 4.7H90.5a4.7 4.7 0 0 1-4.7-4.7V5c0-2.6 2.1-4.7 4.7-4.7H102c2.5 0 4.6 2 4.6 4.7v9L99 16V8h-5.6v29.4H99v-8.8ZM36.2.4h-7.6l-.6 37h-.8L22.3.4h-7.5l-4.8 37h-.8L8.6.4H1L2 45h14.5l2-18.5 2 18.5H35L36.2.4Z" fill="#81B3D3"/></svg>